<svg width="20" height="20" viewBox="0 0 20 20" fill="none" xmlns="http://www.w3.org/2000/svg">
<path d="M9.99898 20C5.05566 19.9349 1.06414 15.9433 0.998985 11C1.06414 6.05669 5.05566 2.06517 9.99898 2.00002C14.9423 2.06517 18.9338 6.05669 18.999 11C18.9338 15.9433 14.9423 19.9349 9.99898 20ZM9.99898 4.00002C6.15415 4.05063 3.0496 7.15518 2.99899 11C3.0496 14.8448 6.15415 17.9494 9.99898 18C13.8438 17.9494 16.9484 14.8448 16.999 11C16.9484 7.15518 13.8438 4.05063 9.99898 4.00002ZM14.999 12H8.99898V6.00002H10.999V10H14.999V12ZM18.291 4.70802L15.282 1.70802L16.691 0.291016L19.701 3.29102L18.291 4.70702V4.70802ZM1.70599 4.70802L0.290985 3.29102L3.28199 0.291016L4.69699 1.70802L1.70799 4.70802H1.70599Z" fill="white"/>
</svg>
