<svg width="32" height="33" viewBox="0 0 32 33" fill="none" xmlns="http://www.w3.org/2000/svg">
<path d="M16 32.75C7.25551 32.75 0.166687 25.4746 0.166687 16.5C0.166687 7.52537 7.25551 0.25 16 0.25C24.7445 0.25 31.8334 7.52537 31.8334 16.5C31.8238 25.4705 24.7406 32.7402 16 32.75ZM16 3.5C9.00441 3.5 3.33335 9.3203 3.33335 16.5C3.33335 23.6797 9.00441 29.5 16 29.5C22.9956 29.5 28.6667 23.6797 28.6667 16.5C28.6588 9.32364 22.9924 3.50806 16 3.5ZM16 26.25C13.4984 26.2934 11.1338 25.08 9.66669 23C8.95431 22.0222 8.41809 20.9216 8.08335 19.75H23.9167C23.9167 19.75 23.9167 19.75 23.9167 19.763C23.5768 20.9285 23.0409 22.024 22.3334 23C20.8661 25.0798 18.5016 26.2932 16 26.25ZM10.4584 16.5C9.14668 16.5 8.08335 15.4087 8.08335 14.0625C8.08335 12.7163 9.14668 11.625 10.4584 11.625C11.77 11.625 12.8334 12.7163 12.8334 14.0625C12.8334 15.4087 11.77 16.5 10.4584 16.5ZM21.5306 16.4772C20.225 16.4772 19.1667 15.391 19.1667 14.0511C19.1667 12.7112 20.225 11.625 21.5306 11.625C22.8362 11.625 23.8945 12.7112 23.8945 14.0511C23.8928 15.3903 22.8354 16.4755 21.5306 16.4772Z" fill="white"/>
</svg>
