<svg width="30" height="30" viewBox="0 0 30 30" fill="none" xmlns="http://www.w3.org/2000/svg">
<path d="M14.9589 29.1667H13.6839C9.93058 28.8339 6.47115 26.9982 4.09163 24.0766C1.68907 21.1594 0.539007 17.4097 0.892794 13.6471C1.44996 6.82449 6.85822 1.40484 13.6796 0.833306C14.2377 0.830394 14.7638 1.09344 15.0963 1.54166C15.4071 2.03629 15.3491 2.67765 14.9546 3.1085C13.5993 4.94953 13.0381 7.2568 13.3963 9.51466C13.694 11.7655 14.9342 13.7839 16.8076 15.0666C19.7838 17.3453 23.9182 17.3453 26.8943 15.0666C27.1652 14.8788 27.4856 14.7753 27.8151 14.7691C28.0387 14.7695 28.259 14.8223 28.4583 14.9235C28.9073 15.2585 29.1702 15.7871 29.1667 16.3472C28.8846 20.1458 27.0311 23.6547 24.0525 26.0287C21.4375 28.0252 18.2486 29.1256 14.9589 29.1667ZM10.9809 4.10725C6.81394 5.58146 3.91431 9.38183 3.59296 13.7902C3.30902 16.7954 4.22862 19.7906 6.15004 22.1187C8.05736 24.4479 10.8226 25.9104 13.8213 26.1761C14.1925 26.2115 14.5693 26.2299 14.9405 26.2299C17.5532 26.2507 20.0843 25.3207 22.062 23.6133C23.5977 22.3214 24.7725 20.6536 25.472 18.7726C24.2399 19.2175 22.9399 19.4447 21.63 19.4441C19.1782 19.4436 16.7908 18.6598 14.8158 17.2072C12.4298 15.3932 10.8087 12.7523 10.2711 9.80366C10.1432 7.877 10.3841 5.94362 10.9809 4.10725Z" fill="white"/>
</svg>
